<?xml version="1.0"?>
<svg xmlns="http://www.w3.org/2000/svg" width="24" height="24" viewBox="0 0 24 24">
    <path d="M 4.0625 0.0625 C 3.725 0.0875 3.40625 0.2875 3.40625 0.6875 C 3.70625 1.8875 5.00625 7.0875 13.90625 11.1875 C 8.50625 9.6875 5.80625 6.59375 5.40625 6.09375 C 5.10625 6.29375 4.3 7.00625 4 8.40625 C 3.5 11.20625 10.30625 17.1 19.40625 13 C 17.30625 11.9 16.30625 5.90625 11.90625 2.90625 C 7.90625 0.30625 6.4 3.6875 6.5 4.6875 C 4.8 2.7875 5.0125 1.7 4.8125 0.5 C 4.7625 0.2 4.4 0.0375 4.0625 0.0625 z M 17.59375 8.5 L 17.90625 9.09375 C 18.20625 9.69375 18.50625 10.30625 18.90625 10.90625 C 20.90625 11.50625 22 12.3 22 13 C 22 14.2 18 16 12 16 C 6 16 2 14.2 2 13 C 2 12.5 2.7 11.9125 4 11.3125 C 3.6 10.7125 3.19375 10.1 3.09375 9.5 C 1.2350896 10.380418 0.05085073 11.455821 0 12.90625 C 0 12.927205 -0.00015440998 12.947835 0 12.96875 C -0.00012604835 12.979587 2.147189e-18 12.989121 0 13 C 0 13.021473 -0.00050641609 13.041163 0 13.0625 C 0.085076695 17.687784 3.9118232 21.291959 4.40625 21.6875 C 5.40625 22.6875 7.8 24 12 24 C 16.2 24 18.69375 22.6875 19.59375 21.6875 C 19.989127 21.292123 23.909607 17.590709 24 13.0625 C 24.000423 13.04132 23.999745 13.021215 24 13 C 24 12.968456 24.001145 12.937506 24 12.90625 C 23.921262 10.75758 21.142132 9.2885294 17.59375 8.5 z"/>
</svg>
