<svg xmlns="http://www.w3.org/2000/svg" width="805" height="600"><rect width="805" height="600" x="0" y="0" fill="#FFFFFF" id="backgorund"/><g id="viz"><g transform="translate(0,0)"><g id="pie" transform="translate(104.625,108.5)"><path fill="#cca752" stroke="#FFFFFF" d="M4.255647627037053e-15,-69.5A69.5,69.5,0,1,1,-40.85107503432685,-56.22668110905888L0,0Z"/><path fill="#30803f" stroke="#FFFFFF" d="M-40.85107503432685,-56.22668110905888A69.5,69.5,0,0,1,4.8961457288047546e-14,-69.5L0,0Z"/></g><text y="35" x="104.625" style="font-family: Arial, sans-serif; font-size: 12px; fill: black; font-weight: bold; dominant-baseline: auto; text-anchor: middle;">Alemania</text></g><g transform="translate(201.25,0)"><g id="pie" transform="translate(104.625,108.5)"><path fill="#cca752" stroke="#FFFFFF" d="M4.255647627037053e-15,-69.5A69.5,69.5,0,1,1,-37.23996225104025,-58.680790822390065L0,0Z"/><path fill="#30803f" stroke="#FFFFFF" d="M-37.23996225104025,-58.680790822390065A69.5,69.5,0,0,1,4.8961457288047546e-14,-69.5L0,0Z"/></g><text y="35" x="104.625" style="font-family: Arial, sans-serif; font-size: 12px; fill: black; font-weight: bold; dominant-baseline: auto; text-anchor: middle;">Australia</text></g><g transform="translate(402.5,0)"><g id="pie" transform="translate(104.625,108.5)"><path fill="#cca752" stroke="#FFFFFF" d="M4.255647627037053e-15,-69.5A69.5,69.5,0,1,1,-37.23996225104025,-58.680790822390065L0,0Z"/><path fill="#30803f" stroke="#FFFFFF" d="M-37.23996225104025,-58.680790822390065A69.5,69.5,0,0,1,4.8961457288047546e-14,-69.5L0,0Z"/></g><text y="35" x="104.625" style="font-family: Arial, sans-serif; font-size: 12px; fill: black; font-weight: bold; dominant-baseline: auto; text-anchor: middle;">Austria</text></g><g transform="translate(603.75,0)"><g id="pie" transform="translate(104.625,108.5)"><path fill="#cca752" stroke="#FFFFFF" d="M4.255647627037053e-15,-69.5A69.5,69.5,0,1,1,-33.48188035006922,-60.90331426304852L0,0Z"/><path fill="#30803f" stroke="#FFFFFF" d="M-33.48188035006922,-60.90331426304852A69.5,69.5,0,0,1,-1.2766942881111157e-14,-69.5L0,0Z"/></g><text y="35" x="104.625" style="font-family: Arial, sans-serif; font-size: 12px; fill: black; font-weight: bold; dominant-baseline: auto; text-anchor: middle;">Brazil</text></g><g transform="translate(0,200)"><g id="pie" transform="translate(104.625,108.5)"><path fill="#cca752" stroke="#FFFFFF" d="M4.255647627037053e-15,-69.5A69.5,69.5,0,1,1,-60.90331426304853,33.481880350069204L0,0Z"/><path fill="#30803f" stroke="#FFFFFF" d="M-60.90331426304853,33.481880350069204A69.5,69.5,0,0,1,-1.2766942881111157e-14,-69.5L0,0Z"/></g><text y="35" x="104.625" style="font-family: Arial, sans-serif; font-size: 12px; fill: black; font-weight: bold; dominant-baseline: auto; text-anchor: middle;">India</text></g><g transform="translate(201.25,200)"><g id="pie" transform="translate(104.625,108.5)"><path fill="#cca752" stroke="#FFFFFF" d="M4.255647627037053e-15,-69.5A69.5,69.5,0,1,1,-40.85107503432685,-56.22668110905888L0,0Z"/><path fill="#30803f" stroke="#FFFFFF" d="M-40.85107503432685,-56.22668110905888A69.5,69.5,0,0,1,4.8961457288047546e-14,-69.5L0,0Z"/></g><text y="35" x="104.625" style="font-family: Arial, sans-serif; font-size: 12px; fill: black; font-weight: bold; dominant-baseline: auto; text-anchor: middle;">Israel</text></g><g transform="translate(402.5,200)"><g id="pie" transform="translate(104.625,108.5)"><path fill="#cca752" stroke="#FFFFFF" d="M4.255647627037053e-15,-69.5A69.5,69.5,0,1,1,-33.48188035006922,-60.90331426304852L0,0Z"/><path fill="#30803f" stroke="#FFFFFF" d="M-33.48188035006922,-60.90331426304852A69.5,69.5,0,0,1,-1.2766942881111157e-14,-69.5L0,0Z"/></g><text y="35" x="104.625" style="font-family: Arial, sans-serif; font-size: 12px; fill: black; font-weight: bold; dominant-baseline: auto; text-anchor: middle;">Italia</text></g><g transform="translate(603.75,200)"><g id="pie" transform="translate(104.625,108.5)"><path fill="#cca752" stroke="#FFFFFF" d="M4.255647627037053e-15,-69.5A69.5,69.5,0,1,1,-44.30096728753393,-53.55067037291736L0,0Z"/><path fill="#30803f" stroke="#FFFFFF" d="M-44.30096728753393,-53.55067037291736A69.5,69.5,0,0,1,-1.2766942881111157e-14,-69.5L0,0Z"/></g><text y="35" x="104.625" style="font-family: Arial, sans-serif; font-size: 12px; fill: black; font-weight: bold; dominant-baseline: auto; text-anchor: middle;">Reino Unido</text></g><g transform="translate(0,400)"><g id="pie" transform="translate(104.625,108.5)"><path fill="#cca752" stroke="#FFFFFF" d="M4.255647627037053e-15,-69.5A69.5,69.5,0,1,1,-53.55067037291734,-44.30096728753395L0,0Z"/><path fill="#30803f" stroke="#FFFFFF" d="M-53.55067037291734,-44.30096728753395A69.5,69.5,0,0,1,4.8961457288047546e-14,-69.5L0,0Z"/></g><text y="35" x="104.625" style="font-family: Arial, sans-serif; font-size: 12px; fill: black; font-weight: bold; dominant-baseline: auto; text-anchor: middle;">Suiza</text></g><g transform="translate(201.25,400)"><g id="pie" transform="translate(104.625,108.5)"><path fill="#cca752" stroke="#FFFFFF" d="M4.255647627037053e-15,-69.5A69.5,69.5,0,1,1,-47.57602386204383,-50.663319605788125L0,0Z"/><path fill="#30803f" stroke="#FFFFFF" d="M-47.57602386204383,-50.663319605788125A69.5,69.5,0,0,1,4.8961457288047546e-14,-69.5L0,0Z"/></g><text y="35" x="104.625" style="font-family: Arial, sans-serif; font-size: 12px; fill: black; font-weight: bold; dominant-baseline: auto; text-anchor: middle;">Taiwan</text></g></g></svg>